# xmcd CD database file
#
# Track frame offsets:
#	187
#	7495
#	23992
#
# Disc length: 615 seconds
#
# Revision: 0
# Processed by: cddbd v1.5.1PL0 Copyright (c) Steve Scherf et al.
# Submitted via: CDex 1.51
#
DISCID=21026503
DTITLE=MIRAGE - シンドローム
DYEAR=1997
DGENRE=Rock
TTITLE0=幻想の告白
TTITLE1=NADIR
TTITLE2=Syndrome
EXTD=YEAR: 1997
EXTT0=
EXTT1=
EXTT2=
PLAYORDER=
